<svg xmlns="http://www.w3.org/2000/svg" viewBox="0 0 32.52 46.21"><defs><style>.cls-1{fill:#fff;}</style></defs><title>fist</title><g id="Layer_1" data-name="Layer 1"><path class="cls-1" d="M470.33,336.28H487.7v-.73c0-3.23,0-6.45,0-9.68a3,3,0,0,1,.29-1.24c1.41-2.9,2.84-5.79,4.28-8.67a11.29,11.29,0,0,0,1.05-5.53c-.21.19-.32.29-.42.39l-4.41,4.56c-.94,1-1.08,1-2.23.34s-2.17-1.33-3.32-2L481,321.85c-.16-.41-.26-.65-.35-.89-.8-2.14-1.6-4.29-2.42-6.42a2.31,2.31,0,0,0-.58-.84c-1.27-1.16-2.56-2.3-3.85-3.45l-3.24-2.92,1.34-2.55a31.15,31.15,0,0,0,3.08.87,4.12,4.12,0,0,0,4.65-2.65c.26-.79.15-1.08-.54-1.42l-9.15-4.5c-1.18-.58-1.58-.45-2.22.68-1.63,2.88-3.22,5.79-4.91,8.64a2.57,2.57,0,0,0,.07,3.07c2.9,4.46,5.73,9,8.57,13.45a1.33,1.33,0,0,1,.22.78c-.3,2.93-.64,5.85-1,8.77C470.59,333.73,470.46,335,470.33,336.28Zm16.77-38.59-.28-.23a2.61,2.61,0,0,1-.24.62q-3.12,4.35-6.28,8.68c-.29.39-.31.71,0,1,1,.94,2.06,1.86,3.1,2.78.35.31.62.18.92-.16,2.26-2.53,4.55-5,6.82-7.57.6-.67.63-.82.08-1.57a12.65,12.65,0,0,0-3.52-3.27A5.28,5.28,0,0,0,487.09,297.69Zm-10.35,1.53c1.13.59,2.2,1.13,3.25,1.7a1.51,1.51,0,0,1,.94,1.93c-.13.72-.33,1.43-.49,2.14a.32.32,0,0,0,.21-.17q2.85-4.15,5.7-8.3a.66.66,0,0,0-.06-.94,11.39,11.39,0,0,0-4.9-3.13.79.79,0,0,0-.7.24C479.37,294.83,478.09,297,476.74,299.21Zm18.12,8.45a4.16,4.16,0,0,0-.16-.52,9.17,9.17,0,0,0-2.4-3.06c-.35-.3-.62-.25-.94.1q-3.18,3.47-6.41,6.89c-.31.33-.39.65-.1,1,.67.74,1.37,1.45,2.08,2.15.27.27.56.22.86-.06,2.25-2,4.51-4,6.76-6.08A2.64,2.64,0,0,0,494.87,307.67Zm-24.56-11.49,5.52,2.6c1.12-1.85,2.18-3.62,3.26-5.38a.7.7,0,0,0-.21-1,10.34,10.34,0,0,0-4.57-2.28.71.71,0,0,0-.86.4C472.43,292.36,471.39,294.22,470.31,296.18Z" transform="translate(-462.34 -290.07)"/><path class="cls-1" d="M470.33,336.28c.14-1.3.26-2.55.4-3.8.32-2.92.65-5.85,1-8.77a1.33,1.33,0,0,0-.22-.78c-2.84-4.49-5.68-9-8.57-13.45a2.57,2.57,0,0,1-.07-3.07c1.69-2.85,3.28-5.75,4.91-8.64.64-1.13,1-1.26,2.22-.68l9.15,4.5c.69.34.8.63.54,1.42a4.12,4.12,0,0,1-4.65,2.65,31.15,31.15,0,0,1-3.08-.87l-1.34,2.55,3.24,2.92c1.28,1.15,2.58,2.29,3.85,3.45a2.31,2.31,0,0,1,.58.84c.82,2.13,1.61,4.28,2.42,6.42.09.24.19.48.35.89l1.95-8.17c1.15.71,2.22,1.39,3.32,2s1.3.64,2.23-.34l4.41-4.56c.1-.11.22-.2.42-.39a11.29,11.29,0,0,1-1.05,5.53c-1.44,2.89-2.87,5.77-4.28,8.67a3,3,0,0,0-.29,1.24c0,3.23,0,6.45,0,9.68v.73Z" transform="translate(-462.34 -290.07)"/><path class="cls-1" d="M487.09,297.69a5.28,5.28,0,0,1,.64.3,12.65,12.65,0,0,1,3.52,3.27c.54.75.52.9-.08,1.57-2.28,2.52-4.56,5-6.82,7.57-.3.34-.57.47-.92.16-1-.92-2.08-1.84-3.1-2.78-.34-.31-.31-.63,0-1q3.16-4.32,6.28-8.68a2.61,2.61,0,0,0,.24-.62Z" transform="translate(-462.34 -290.07)"/><path class="cls-1" d="M476.74,299.21c1.34-2.24,2.62-4.39,3.94-6.52a.79.79,0,0,1,.7-.24,11.39,11.39,0,0,1,4.9,3.13.66.66,0,0,1,.06.94q-2.86,4.14-5.7,8.3a.32.32,0,0,1-.21.17c.17-.71.36-1.42.49-2.14a1.51,1.51,0,0,0-.94-1.93C478.94,300.35,477.88,299.81,476.74,299.21Z" transform="translate(-462.34 -290.07)"/><path class="cls-1" d="M494.87,307.67a2.64,2.64,0,0,1-.31.4c-2.25,2-4.51,4-6.76,6.08-.3.27-.59.32-.86.06-.71-.7-1.41-1.41-2.08-2.15-.29-.32-.21-.64.1-1q3.22-3.43,6.41-6.89c.32-.35.59-.4.94-.1a9.17,9.17,0,0,1,2.4,3.06A4.16,4.16,0,0,1,494.87,307.67Z" transform="translate(-462.34 -290.07)"/><path class="cls-1" d="M470.31,296.18c1.08-2,2.13-3.82,3.15-5.69a.71.71,0,0,1,.86-.4,10.34,10.34,0,0,1,4.57,2.28.7.7,0,0,1,.21,1c-1.09,1.76-2.15,3.53-3.26,5.38Z" transform="translate(-462.34 -290.07)"/></g></svg>