<svg xmlns="http://www.w3.org/2000/svg" viewBox="0 0 341.6 224.55"><defs><style>.cls-1{fill:#5acdf9;stroke:#5acdf9;}.cls-1,.cls-2{stroke-miterlimit:10;stroke-width:2.06px;}.cls-2{fill:#f5a8b8;stroke:#f5a8b8;}.cls-3,.cls-4{fill:#fff;}.cls-3{fill-rule:evenodd;}.cls-4{font-size:24.03px;font-family:Avenir-Medium, Avenir;letter-spacing:0.13em;}.cls-5{font-family:Avenir-Black, Avenir;letter-spacing:0.13em;}</style></defs><title>logo</title><g id="Layer_2" data-name="Layer 2"><path class="cls-1" d="M364.84,329.57,350.77,354s36.34,24.53,83.4,6.52L423.6,332.21S396.41,347.31,364.84,329.57Z" transform="translate(-242.72 -184.85)"/><path class="cls-2" d="M434.18,326.34,448,353.11S525.57,315.76,489.88,221l-26.57,11.15S493.21,297.44,434.18,326.34Z" transform="translate(-242.72 -184.85)"/><path class="cls-1" d="M363.81,209l16.1,7.93s42.71-28.14,76.27,4.13l23.59-11.86S434.15,156.9,363.81,209Z" transform="translate(-242.72 -184.85)"/><path class="cls-3" d="M504.48,272.57c19.09,5.35,35.24,16.91,41.47,32.2,5.21,12.78,1.15,25.31-10.26,30.44-23,10.35-69.32,10.53-108,5.51-2.58-.33-5.08-.69-7.49-1.07,2-3.64,5.92-4.05,14.87-3.38,27,2,67.75,2.63,89.27-5.08,14.17-5.07,17.06-13.13,10.58-25.47-9-16.51-26.71-24.35-57.66-28.35-4.73-.49-18.12-3-23.55,4.68l-37,52.42c-5.7,8.06-7.62,3.47-9,.43L402.1,324c-.79-1.84-1.78-4.29,1.13-8.42L412,303.13l-4.23-8.81L401,304c-2.78,4-5.19,6-8.25-1l-5-11.25c-5.66-12.68-8.64-13.7-15.8-15l-86.67-15.6c-6.74-1.21-9.91-3.12-11.79-4.92L374.1,271.11c9,.82,15.62,3.81,19.19,12.08l4.09,9.52,12.87-18.3c2.33-3.32-1.57-4.94-4.39-5.27l-135-15.82c-3.7-.79-5.34-3.08-6.89-6.43l-.18-.16h.11q-.24-.53-.49-1.09l-6.16-14.9c-1.51-3.64-2-6.67-5.15-8.54l-6.44-3.12c-4.73-2.78-3.37-2.65,1.16-2.09l10.87,1.38c7,.86,9.17,1.7,13.83,8.12l12.37,16.14c2.22,2.9,4.25,6.32,7.49,6.61L419.8,261l14,1.27a14.77,14.77,0,0,0-7.46,5.84l-11,15.66,4.23,8.82,15.7-22.25c2.8-4,7.71-7.23,12.89-6.76C467,265.26,486,267.4,504.48,272.57Z" transform="translate(-242.72 -184.85)"/><path class="cls-3" d="M462.77,236.79c67.57,6.16,122,15.18,121.55,20.14s-55.62,4-123.19-2.19-122-15.18-121.55-20.13,55.62-4,123.19,2.19Zm-.31,3.35c-46.36-4.23-84.18-5.14-84.47-2s37.08,9.05,83.44,13.28,84.18,5.14,84.47,2S508.82,244.37,462.47,240.14Z" transform="translate(-242.72 -184.85)"/><path class="cls-2" d="M350.3,221l13.51,7.2s-49.67,45.79-8.15,94.45l-14.14,22.47S290.23,286,350.3,221Z" transform="translate(-242.72 -184.85)"/><text class="cls-4" transform="translate(62.05 213.57)">TRANS<tspan class="cls-5" x="93.96" y="0" xml:space="preserve"> RESCUE</tspan></text></g></svg>